<?xml version="1.0" encoding="UTF-8"?>
<!DOCTYPE svg PUBLIC "-//W3C//DTD SVG 1.1//EN" "http://www.w3.org/Graphics/SVG/1.1/DTD/svg11.dtd">
<svg version="1.1" xmlns="http://www.w3.org/2000/svg" xmlns:xlink="http://www.w3.org/1999/xlink" x="0" y="0" width="350" height="350" viewBox="0, 0, 350, 350">
  <g id="white">
    <g>
      <path d="M78.6,75.822 L265.952,75.822 C267.21,75.822 268.23,76.842 268.23,78.1 L268.23,265.452 C268.23,266.71 267.21,267.73 265.952,267.73 L78.6,267.73 C77.342,267.73 76.322,266.71 76.322,265.452 L76.322,78.1 C76.322,76.842 77.342,75.822 78.6,75.822 z" fill="#254359"/>
      <path d="M158.255,224.856 L235.709,224.856 L235.709,237.508 L158.255,237.508 L158.255,224.856 z" fill="#FFFFFF"/>
      <path d="M104.78,215.91 L159.548,161.142 L168.494,170.088 L113.726,224.856 L104.78,215.91 z" fill="#FFFFFF"/>
      <path d="M116.604,112.964 L171.371,167.732 L162.425,176.678 L107.657,121.91 L116.604,112.964 z" fill="#FFFFFF"/>
    </g>
  </g>
  <g id="Layer_2">
    <path d="M-12,-10 L363,-10 L363,368 L-12,368 L-12,-10 z" fill="#5C5A5A" display="none"/>
  </g>
  <g id="pale_blue">
    <path d="M243.185,225.06 C238.705,225.06 235.07,221.39 235.07,216.865 C235.07,212.34 238.705,208.675 243.185,208.675 C247.67,208.675 251.31,212.34 251.31,216.865 C251.31,221.39 247.67,225.06 243.185,225.06 L243.185,225.06 z M217.15,225.06 C212.665,225.06 209.03,221.39 209.03,216.865 C209.03,212.34 212.665,208.675 217.15,208.675 C221.63,208.675 225.27,212.34 225.27,216.865 C225.27,221.39 221.63,225.06 217.15,225.06 L217.15,225.06 z M269.7,189.22 L78.915,189.22 C74.71,189.22 71.295,192.66 71.295,196.91 L71.295,237.21 C71.295,241.45 74.71,244.895 78.915,244.895 L269.7,244.895 C273.91,244.895 277.32,241.45 277.32,237.21 L277.32,196.91 C277.32,192.66 273.91,189.22 269.7,189.22 L269.7,189.22 z" fill="#CEDEEA" id="Shape" display="none"/>
    <path d="M27.5,234.68 L27.495,231.465 L30.68,231.465 C38.55,231.465 44.955,225.005 44.955,217.06 C44.955,209.115 38.55,202.65 30.68,202.65 L27.5,202.65 L27.505,187.11 C13.79,190.06 3.505,202.345 3.505,217.06 C3.505,231.77 13.795,244.06 27.505,247.005 C27.51,242.485 27.51,238.055 27.5,234.68 L27.5,234.68 z" fill="#CEDEEA" id="Shape" display="none"/>
    <path d="M64.205,217.06 C64.205,200.145 50.615,186.435 33.855,186.435 L33.855,196.49 C43.725,198.04 51.305,206.67 51.305,217.06 C51.305,227.445 43.73,236.075 33.86,237.625 C33.865,240.65 33.86,244.15 33.86,247.685 C50.615,247.68 64.205,233.97 64.205,217.06 L64.205,217.06 z" fill="#96B1C8" id="Shape" display="none"/>
    <path d="M322.355,199.975 L322.365,203.18 L319.18,203.18 C311.305,203.18 304.9,209.645 304.9,217.59 C304.9,225.53 311.305,231.995 319.18,231.995 L322.355,231.995 L322.355,247.035 C336.135,244.145 346.495,231.825 346.495,217.06 C346.495,202.295 336.135,189.97 322.35,187.08 C322.345,191.8 322.345,196.455 322.355,199.975 L322.355,199.975 z" fill="#96B1C8" id="Shape" display="none"/>
    <path d="M285.795,217.06 C285.795,233.92 299.31,247.6 316,247.68 L316,238.155 C306.13,236.61 298.555,227.98 298.555,217.59 C298.555,207.205 306.125,198.575 316,197.02 C316,193.85 316,190.15 316,186.44 C299.31,186.52 285.795,200.195 285.795,217.06 L285.795,217.06 z" fill="#CEDEEA" id="Shape" display="none"/>
    <path d="M149.315,102.51 C149.315,114.46 143.165,124.15 135.585,124.15 C128.005,124.15 121.855,114.465 121.855,102.51 C121.855,90.56 128,80.875 135.585,80.875 C143.165,80.875 149.315,90.56 149.315,102.51 L149.315,102.51 z" fill="#96B1C8" id="Shape" display="none"/>
    <path d="M226.76,102.51 C226.76,114.46 220.615,124.15 213.03,124.15 C205.45,124.15 199.305,114.465 199.305,102.51 C199.305,90.56 205.45,80.875 213.03,80.875 C220.615,80.875 226.76,90.56 226.76,102.51 L226.76,102.51 z" fill="#96B1C8" id="Shape" display="none"/>
    <path d="M270.99,263.09 C270.99,258.985 267.695,255.66 263.625,255.66 L84.995,255.66 C80.925,255.66 77.625,258.985 77.625,263.09 L77.625,267.73 C77.625,300.81 120.915,327.62 174.31,327.62 C227.705,327.62 270.99,300.81 270.99,267.73 L270.99,263.09 L270.99,263.09 z" fill="#CEDEEA" id="Shape" display="none"/>
    <path d="M188.01,164.06 C187.155,157.33 181.45,152.125 174.54,152.125 C167.615,152.125 161.9,157.35 161.065,164.105 C113.935,160.1 77.63,135.065 77.63,104.77 C77.63,71.69 120.915,44.875 174.31,44.875 C227.705,44.875 270.99,71.69 270.99,104.77 C270.99,134.965 234.92,159.945 188.01,164.06 L188.01,164.06 z M68.32,179.52 L280.76,179.52 C286.01,163.085 301.295,151.195 319.33,151.195 L319.79,151.195 C319.53,74.485 254.495,12.38 174.31,12.38 C94.12,12.38 29.085,74.49 28.825,151.205 C29.13,151.2 29.44,151.195 29.745,151.195 C47.785,151.195 63.07,163.085 68.32,179.52 L68.32,179.52 z" fill="#CEDEEA" id="Shape" display="none"/>
    <path d="M243.185,225.06 C238.705,225.06 235.07,221.39 235.07,216.865 C235.07,212.34 238.705,208.675 243.185,208.675 C247.67,208.675 251.31,212.34 251.31,216.865 C251.31,221.39 247.67,225.06 243.185,225.06 L243.185,225.06 z M217.15,225.06 C212.665,225.06 209.03,221.39 209.03,216.865 C209.03,212.34 212.665,208.675 217.15,208.675 C221.63,208.675 225.27,212.34 225.27,216.865 C225.27,221.39 221.63,225.06 217.15,225.06 L217.15,225.06 z M269.7,189.22 L173.915,189.22 C173.915,211.562 173.915,232.812 173.915,244.895 L269.7,244.895 C273.91,244.895 277.32,241.45 277.32,237.21 L277.32,196.91 C277.32,192.66 273.91,189.22 269.7,189.22 L269.7,189.22 z" fill="#96B1C8" id="Shape" display="none"/>
    <path d="M270.99,263.09 C270.99,258.985 267.695,255.66 263.625,255.66 L173.745,255.66 C173.75,280.432 173.75,306.875 173.915,327.62 C227.31,327.62 270.99,300.81 270.99,267.73 L270.99,263.09 L270.99,263.09 z" fill="#96B1C8" id="Shape" display="none"/>
    <path d="M174.309,12.38 C254.495,12.38 319.53,74.485 319.789,151.195 L319.329,151.195 C301.295,151.195 286.01,163.085 280.759,179.52 L174.491,179.52 C174.453,170.625 174.453,159.375 174.539,152.125 C181.45,152.125 187.155,157.33 188.009,164.06 C234.92,159.945 270.99,134.965 270.99,104.77 C270.99,71.69 227.705,44.875 174.309,44.875 C174.453,39.062 174.453,20.234 174.309,12.38 z" fill="#96B1C8" display="none"/>
  </g>
</svg>
